<svg version="1.1" xmlns="http://www.w3.org/2000/svg" xmlns:xlink="http://www.w3.org/1999/xlink" width="23.11978" height="22.09856" viewBox="0,0,23.11978,22.09856"><g transform="translate(-228.44011,-168.95072)"><g stroke-miterlimit="10"><path d="M251.25989,181.03508c0,5.36501 -5.04122,9.7142 -11.25989,9.7142c-6.21866,0 -11.25989,-4.3492 -11.25989,-9.7142c0,-5.365 5.04122,-9.7142 11.25989,-9.7142c6.21866,0 11.25989,4.34921 11.25989,9.7142z" fill="#4d4d4d" stroke="#000000" stroke-width="0.6"/><path d="M239.78768,174.08993c0,-2.67262 2.06889,-4.8392 4.62099,-4.8392c2.55211,0 4.62099,2.16657 4.62099,4.8392c0,2.67262 -2.06889,4.8392 -4.62099,4.8392c-2.55211,0 -4.62099,-2.16657 -4.62099,-4.8392z" fill="#ffffff" stroke="#000000" stroke-width="0.6"/><path d="M240.57347,172.82275c0,-1.25173 0.96498,-2.26647 2.15535,-2.26647c1.19037,0 2.15535,1.01473 2.15535,2.26647c0,1.25173 -0.96498,2.26646 -2.15535,2.26646c-1.19037,0 -2.15535,-1.01472 -2.15535,-2.26646z" fill="#010101" stroke="#000000" stroke-width="0.3"/><path d="M230.97553,174.24601c0,-2.54483 2.06415,-4.60782 4.61039,-4.60782c2.54625,0 4.61039,2.06299 4.61039,4.60782c0,2.54483 -2.06415,4.60782 -4.61039,4.60782c-2.54625,0 -4.61039,-2.06299 -4.61039,-4.60782z" fill="#ffffff" stroke="#000000" stroke-width="0.6"/><path d="M232.20434,172.75002c0,-1.25031 0.98068,-2.26389 2.19043,-2.26389c1.20975,0 2.19043,1.01358 2.19043,2.26389c0,1.25031 -0.98068,2.26388 -2.19043,2.26388c-1.20975,0 -2.19043,-1.01357 -2.19043,-2.26388z" fill="#010101" stroke="#000000" stroke-width="0.3"/><g><path d="M234.05115,184.30639c0,-3.27342 2.66339,-5.92706 5.94885,-5.92706c3.28545,0 5.94885,2.65363 5.94885,5.92706c0,3.27342 -2.66339,5.92706 -5.94885,5.92706c-3.28546,0 -5.94885,-2.65363 -5.94885,-5.92706z" fill="#ffffff" stroke="#ffffff" stroke-width="0.3"/><path d="M245.94885,184.28683c0,3.04148 -2.28262,5.54951 -5.22815,5.90528v-4.0874h1.60931l0.3338,-1.81787h-1.94311v-0.6429c0,-0.96067 0.3769,-1.33016 1.35234,-1.33016c0.30299,0 0.54684,0.0074 0.68726,0.02217v-1.64792c-0.26603,-0.07391 -0.91633,-0.14779 -1.29321,-0.14779c-1.98787,0 -2.90418,0.93849 -2.90418,2.96329v0.78332h-1.2267v1.81787h1.2267v3.95579c-2.5911,-0.64286 -4.51174,-2.98377 -4.51174,-5.77367c0,-3.28545 2.66339,-5.94884 5.94884,-5.94884c3.28545,0 5.94884,2.66339 5.94884,5.94884" fill="#0866ff" stroke="none" stroke-width="0"/></g></g></g></svg>