<svg version="1.1" xmlns="http://www.w3.org/2000/svg" xmlns:xlink="http://www.w3.org/1999/xlink" width="23.11978" height="31.08565" viewBox="0,0,23.11978,31.08565"><g transform="translate(-228.59011,-168.95074)"><g stroke-miterlimit="10"><path d="M251.40989,181.03512c0,5.36501 -5.04122,9.7142 -11.25989,9.7142c-6.21866,0 -11.25989,-4.3492 -11.25989,-9.7142c0,-5.365 5.04122,-9.7142 11.25989,-9.7142c6.21866,0 11.25989,4.34921 11.25989,9.7142z" fill="#4d4d4d" stroke="#000000" stroke-width="0.6"/><path d="M239.93768,174.08995c0,-2.67262 2.06889,-4.8392 4.62099,-4.8392c2.55211,0 4.62099,2.16657 4.62099,4.8392c0,2.67262 -2.06889,4.8392 -4.62099,4.8392c-2.55211,0 -4.62099,-2.16657 -4.62099,-4.8392z" fill="#ffffff" stroke="#000000" stroke-width="0.6"/><path d="M240.72347,172.82278c0,-1.25173 0.96498,-2.26647 2.15535,-2.26647c1.19037,0 2.15535,1.01473 2.15535,2.26647c0,1.25173 -0.96498,2.26646 -2.15535,2.26646c-1.19037,0 -2.15535,-1.01472 -2.15535,-2.26646z" fill="#010101" stroke="#000000" stroke-width="0.3"/><path d="M231.12553,174.24603c0,-2.54483 2.06415,-4.60782 4.61039,-4.60782c2.54625,0 4.61039,2.06299 4.61039,4.60782c0,2.54483 -2.06415,4.60782 -4.61039,4.60782c-2.54625,0 -4.61039,-2.06299 -4.61039,-4.60782z" fill="#ffffff" stroke="#000000" stroke-width="0.6"/><path d="M232.35434,172.75004c0,-1.25031 0.98068,-2.26389 2.19043,-2.26389c1.20975,0 2.19043,1.01358 2.19043,2.26389c0,1.25031 -0.98068,2.26388 -2.19043,2.26388c-1.20975,0 -2.19043,-1.01357 -2.19043,-2.26388z" fill="#010101" stroke="#000000" stroke-width="0.3"/><g stroke="none"><path d="M229.97992,190.05302c0,-5.51367 4.48614,-9.98338 10.02008,-9.98338c5.53393,0 10.02008,4.46971 10.02008,9.98338c0,5.51367 -4.48614,9.98338 -10.02008,9.98338c-5.53394,0 -10.02008,-4.46971 -10.02008,-9.98338z" fill="#ffffff" stroke-width="0"/><path d="M250.02008,190.02008c0,5.12299 -3.84479,9.34745 -8.80616,9.94669v-6.88471h2.71068l0.56224,-3.06198h-3.27292v-1.08289c0,-1.61812 0.63484,-2.24049 2.27785,-2.24049c0.51035,0 0.92109,0.01246 1.1576,0.03735v-2.77572c-0.4481,-0.12449 -1.54345,-0.24894 -2.17825,-0.24894c-3.34831,0 -4.89172,1.58076 -4.89172,4.99128v1.3194h-2.06622v3.06198h2.06622v6.66303c-4.36438,-1.08281 -7.59946,-5.02579 -7.59946,-9.72501c0,-5.53393 4.48615,-10.02007 10.02007,-10.02007c5.53393,0 10.02007,4.48615 10.02007,10.02007" fill="#0866ff" stroke-width="1"/></g></g></g></svg>