<svg version="1.1" xmlns="http://www.w3.org/2000/svg" xmlns:xlink="http://www.w3.org/1999/xlink" width="30.23489" height="23.16594" viewBox="0,0,30.23489,23.16594"><g transform="translate(-224.88255,-168.95072)"><g stroke-miterlimit="10"><path d="M251.25989,181.0351c0,5.36501 -5.04122,9.7142 -11.25989,9.7142c-6.21866,0 -11.25989,-4.3492 -11.25989,-9.7142c0,-5.365 5.04122,-9.7142 11.25989,-9.7142c6.21866,0 11.25989,4.34921 11.25989,9.7142z" fill="#4d4d4d" stroke="#000000" stroke-width="0.6"/><path d="M239.78768,174.08993c0,-2.67262 2.06889,-4.8392 4.62099,-4.8392c2.55211,0 4.62099,2.16657 4.62099,4.8392c0,2.67262 -2.06889,4.8392 -4.62099,4.8392c-2.55211,0 -4.62099,-2.16657 -4.62099,-4.8392z" fill="#ffffff" stroke="#000000" stroke-width="0.6"/><path d="M240.57347,172.82276c0,-1.25173 0.96498,-2.26647 2.15535,-2.26647c1.19037,0 2.15535,1.01473 2.15535,2.26647c0,1.25173 -0.96498,2.26646 -2.15535,2.26646c-1.19037,0 -2.15535,-1.01472 -2.15535,-2.26646z" fill="#010101" stroke="#000000" stroke-width="0.3"/><path d="M230.97553,174.24601c0,-2.54483 2.06415,-4.60782 4.61039,-4.60782c2.54625,0 4.61039,2.06299 4.61039,4.60782c0,2.54483 -2.06415,4.60782 -4.61039,4.60782c-2.54625,0 -4.61039,-2.06299 -4.61039,-4.60782z" fill="#ffffff" stroke="#000000" stroke-width="0.6"/><path d="M232.20434,172.75002c0,-1.25031 0.98068,-2.26389 2.19043,-2.26389c1.20975,0 2.19043,1.01358 2.19043,2.26389c0,1.25031 -0.98068,2.26388 -2.19043,2.26388c-1.20975,0 -2.19043,-1.01357 -2.19043,-2.26388z" fill="#010101" stroke="#000000" stroke-width="0.3"/><g stroke="none" stroke-width="0"><path d="M244.0236,186.42592c-1.37384,0.04503 -2.22745,0.29295 -2.22745,1.19788c0,0.58583 0.46704,1.22093 1.65274,1.22093c1.58966,0 2.43822,-0.8665 2.43822,-2.28767l0.00009,-0.15631c-0.55732,0 -1.24459,0.00486 -1.86359,0.02518zM247.40238,188.30358c0,0.44092 0.01275,0.87615 0.05122,1.26808h-1.40937c-0.03759,-0.32272 -0.05131,-0.64338 -0.05131,-0.95441c-0.76198,0.93666 -1.66828,1.20593 -2.92557,1.20593c-1.86479,0 -2.86327,-0.98565 -2.86327,-2.12572c0,-1.65119 1.35803,-2.23337 3.71557,-2.28739c0.64471,-0.01472 1.36886,-0.0169 1.96755,-0.0169l-0.00009,-0.16134c0,-1.10542 -0.70882,-1.55992 -1.93708,-1.55992c-0.91185,0 -1.58388,0.37735 -1.65314,1.0294h-1.59192c0.16847,-1.62578 1.87657,-2.03696 3.37845,-2.03696c1.79923,0 3.31895,0.64016 3.31895,2.5432z" fill="#ffbc13"/><path d="M230.91854,185.61964c-0.05878,-1.41733 -1.08179,-1.94772 -2.17514,-1.94772c-1.17899,0 -2.12027,0.59662 -2.28516,1.94772zM226.42557,186.62721c0.08177,1.37519 1.0301,2.18853 2.33406,2.18853c0.90343,0 1.70706,-0.36811 1.97614,-1.16889h1.56267c-0.30392,1.62482 -2.03039,2.17633 -3.51641,2.17633c-2.70198,0 -3.89947,-1.48806 -3.89947,-3.49482c0,-2.2091 1.23859,-3.664 3.92413,-3.664c2.13757,0 3.70377,1.11867 3.70377,3.56033v0.40252z" fill="#f12c2d"/><path d="M236.39696,188.78697c1.40811,0 2.37165,-1.01353 2.37165,-2.54301c0,-1.52934 -0.96354,-2.54301 -2.37165,-2.54301c-1.4002,0 -2.37174,1.01367 -2.37174,2.54301c0,1.52948 0.97155,2.54301 2.37174,2.54301zM232.51038,180h1.51484l-0.00015,3.80588c0.74247,-0.88467 1.76538,-1.14152 2.77223,-1.14152c1.68817,0 3.56322,1.13917 3.56322,3.59882c0,2.05967 -1.49123,3.56 -3.59134,3.56c-1.09926,0 -2.134,-0.39434 -2.77214,-1.17562c0,0.31206 -0.01742,0.62658 -0.05155,0.9241h-1.4867c0.02585,-0.48102 0.05157,-1.07994 0.05157,-1.56456z" fill="#0968f6"/><path d="M255.11745,182.91638l-4.68473,9.20028h-1.69636l1.34686,-2.5547l-3.52555,-6.64558h1.77257l2.5943,5.19226l2.58698,-5.19226z" fill="#93c822"/></g></g></g></svg>