<svg version="1.1" xmlns="http://www.w3.org/2000/svg" xmlns:xlink="http://www.w3.org/1999/xlink" width="23.11978" height="22.09857" viewBox="0,0,23.11978,22.09857"><g transform="translate(-228.44011,-168.95073)"><g stroke-miterlimit="10"><path d="M251.25989,181.03511c0,5.36501 -5.04122,9.7142 -11.25989,9.7142c-6.21866,0 -11.25989,-4.3492 -11.25989,-9.7142c0,-5.365 5.04122,-9.7142 11.25989,-9.7142c6.21866,0 11.25989,4.34921 11.25989,9.7142z" fill="#4d4d4d" stroke="#000000" stroke-width="0.6"/><path d="M239.78768,174.08994c0,-2.67262 2.06889,-4.8392 4.62099,-4.8392c2.55211,0 4.62099,2.16657 4.62099,4.8392c0,2.67262 -2.06889,4.8392 -4.62099,4.8392c-2.55211,0 -4.62099,-2.16657 -4.62099,-4.8392z" fill="#ffffff" stroke="#000000" stroke-width="0.6"/><path d="M240.57347,172.82276c0,-1.25173 0.96498,-2.26647 2.15535,-2.26647c1.19037,0 2.15535,1.01473 2.15535,2.26647c0,1.25173 -0.96498,2.26646 -2.15535,2.26646c-1.19037,0 -2.15535,-1.01472 -2.15535,-2.26646z" fill="#010101" stroke="#000000" stroke-width="0.3"/><path d="M230.97553,174.24602c0,-2.54483 2.06415,-4.60782 4.61039,-4.60782c2.54625,0 4.61039,2.06299 4.61039,4.60782c0,2.54483 -2.06415,4.60782 -4.61039,4.60782c-2.54625,0 -4.61039,-2.06299 -4.61039,-4.60782z" fill="#ffffff" stroke="#000000" stroke-width="0.6"/><path d="M232.20434,172.75003c0,-1.25031 0.98068,-2.26389 2.19043,-2.26389c1.20975,0 2.19043,1.01358 2.19043,2.26389c0,1.25031 -0.98068,2.26388 -2.19043,2.26388c-1.20975,0 -2.19043,-1.01357 -2.19043,-2.26388z" fill="#010101" stroke="#000000" stroke-width="0.3"/><g stroke="#ffffff" stroke-width="0.3"><path d="M242.99689,184.7862c-1.02327,0.03354 -1.65907,0.2182 -1.65907,0.89221c0,0.43634 0.34786,0.90938 1.23101,0.90938c1.18402,0 1.81605,-0.64539 1.81605,-1.70392l0.00007,-0.11642c-0.41511,0 -0.927,0.00362 -1.38805,0.01875zM245.5135,186.18474c0,0.32841 0.0095,0.65258 0.03815,0.9445h-1.04974c-0.028,-0.24037 -0.03822,-0.47921 -0.03822,-0.71087c-0.56754,0.69765 -1.24258,0.89821 -2.17905,0.89821c-1.38895,0 -2.13264,-0.73414 -2.13264,-1.58329c0,-1.22985 1.0115,-1.66348 2.76746,-1.70371c0.4802,-0.01096 1.01956,-0.01259 1.46549,-0.01259l-0.00007,-0.12017c0,-0.82335 -0.52795,-1.16187 -1.44279,-1.16187c-0.67917,0 -1.17972,0.28106 -1.2313,0.76673h-1.18571c0.12548,-1.21093 1.39772,-1.51718 2.51636,-1.51718c1.34012,0 2.47205,0.47681 2.47205,1.89425z" fill="#ffbc13"/><path d="M233.23588,184.18567c-0.04378,-1.05567 -0.80575,-1.45072 -1.6201,-1.45072c-0.87814,0 -1.57924,0.44438 -1.70205,1.45072zM229.88939,184.93613c0.0609,1.02428 0.76725,1.63008 1.73847,1.63008c0.6729,0 1.27147,-0.27418 1.47188,-0.87062h1.16392c-0.22637,1.21021 -1.51229,1.62099 -2.61912,1.62099c-2.01251,0 -2.90443,-1.10835 -2.90443,-2.60304c0,-1.6454 0.92254,-2.72905 2.9228,-2.72905c1.59212,0 2.75867,0.83322 2.75867,2.65183v0.29981z" fill="#f12c2d"/><path d="M237.31636,186.54478c1.0488,0 1.76647,-0.75491 1.76647,-1.8941c0,-1.13909 -0.71767,-1.8941 -1.76647,-1.8941c-1.04291,0 -1.76654,0.75501 -1.76654,1.8941c0,1.1392 0.72364,1.8941 1.76654,1.8941zM234.42152,180h1.12829l-0.00011,2.83472c0.55301,-0.65893 1.3149,-0.85024 2.06483,-0.85024c1.2574,0 2.65398,0.84849 2.65398,2.6805c0,1.5341 -1.11071,2.65159 -2.67493,2.65159c-0.81876,0 -1.58946,-0.29372 -2.06477,-0.87563c0,0.23243 -0.01297,0.46669 -0.0384,0.6883h-1.10734c0.01925,-0.35828 0.03841,-0.80437 0.03841,-1.16533z" fill="#0968f6"/><path d="M251.25989,182.1722l-3.48932,6.85262h-1.2635l1.00318,-1.90281l-2.62593,-4.94981h1.32026l1.93231,3.86734l1.92685,-3.86734z" fill="#93c822"/></g></g></g></svg>