<svg version="1.1" xmlns="http://www.w3.org/2000/svg" xmlns:xlink="http://www.w3.org/1999/xlink" width="27.05392" height="23.74258" viewBox="-0.15,0,27.05392,23.74258"><g transform="translate(-226.62304,-168.95072)"><g stroke="#000000" stroke-miterlimit="10"><path d="M251.25989,181.0351c0,5.36501 -5.04122,9.7142 -11.25989,9.7142c-6.21866,0 -11.25989,-4.3492 -11.25989,-9.7142c0,-5.365 5.04122,-9.7142 11.25989,-9.7142c6.21866,0 11.25989,4.34921 11.25989,9.7142z" fill="#4d4d4d" stroke-width="0.6"/><path d="M239.78768,174.08993c0,-2.67262 2.06889,-4.8392 4.62099,-4.8392c2.55211,0 4.62099,2.16657 4.62099,4.8392c0,2.67262 -2.06889,4.8392 -4.62099,4.8392c-2.55211,0 -4.62099,-2.16657 -4.62099,-4.8392z" fill="#ffffff" stroke-width="0.6"/><path d="M240.57347,172.82276c0,-1.25173 0.96498,-2.26647 2.15535,-2.26647c1.19037,0 2.15535,1.01473 2.15535,2.26647c0,1.25173 -0.96498,2.26646 -2.15535,2.26646c-1.19037,0 -2.15535,-1.01472 -2.15535,-2.26646z" fill="#010101" stroke-width="0.3"/><path d="M230.97553,174.24601c0,-2.54483 2.06415,-4.60782 4.61039,-4.60782c2.54625,0 4.61039,2.06299 4.61039,4.60782c0,2.54483 -2.06415,4.60782 -4.61039,4.60782c-2.54625,0 -4.61039,-2.06299 -4.61039,-4.60782z" fill="#ffffff" stroke-width="0.6"/><path d="M232.20434,172.75002c0,-1.25031 0.98068,-2.26389 2.19043,-2.26389c1.20975,0 2.19043,1.01358 2.19043,2.26389c0,1.25031 -0.98068,2.26388 -2.19043,2.26388c-1.20975,0 -2.19043,-1.01357 -2.19043,-2.26388z" fill="#010101" stroke-width="0.3"/><path d="M229.49122,180.97323v3.59825c0,0 1.26789,0 1.94646,-0.05151c0.53363,-0.09343 0.63185,-0.14494 0.73007,-0.67857l0.19644,-0.78158h0.58034l-0.09822,1.70809l0.05151,1.75002h-0.58514l-0.14494,-0.68336c-0.14494,-0.48632 -0.34138,-0.58514 -0.73007,-0.63185c-0.48632,-0.05151 -1.94646,-0.05151 -1.94646,-0.05151v3.01791c0,0.58034 0.29466,0.82829 0.97323,0.82829h2.04468c0.63185,0 1.2631,-0.05151 1.65659,-0.97323l0.52884,-1.16967h0.49111c-0.05151,0.24316 -0.29466,2.38606 -0.34138,2.86818c0,0 -1.84824,-0.04672 -2.62502,-0.04672h-3.50482l-2.09139,0.04672v-0.52884l0.67857,-0.14973c0.49111,-0.09822 0.63604,-0.24316 0.63604,-0.63185c0,0 0.05151,-1.31461 0.05151,-3.50482c0,-2.18482 -0.05151,-3.50003 -0.05151,-3.50003c0,-0.43541 -0.14494,-0.53363 -0.63604,-0.63185l-0.67857,-0.14374v-0.53363l2.04468,0.04192h3.89292c0.77679,0 2.0866,-0.14015 2.0866,-0.14015c0,0 -0.04672,0.8235 -0.09822,2.76996h-0.53363l-0.19644,-0.68336c-0.19165,-0.87501 -0.48212,-1.31042 -1.01994,-1.31042h-3.05983c-0.24795,0.0006 -0.24795,0.04731 -0.24795,0.19704zM237.37048,181.35713h0.58514v2.04468l1.99796,-0.09822l-0.09822,0.92651l-1.94646,-0.14973v3.60304c0,1.01994 0.34138,1.41283 0.92651,1.41283c0.52884,0 0.92172,-0.29466 1.06666,-0.53782l0.28987,0.34138c-0.28987,0.67857 -1.11337,1.01994 -1.89495,1.01994c-0.96844,0 -1.75481,-0.58034 -1.75481,-1.69851v-4.08996h-1.16069v-0.48632c0.97383,-0.09822 1.69911,-0.68336 1.98898,-2.28784zM241.55807,187.63132l0.38809,0.92651c0.14494,0.38809 0.48632,0.78158 1.2631,0.78158c0.82829,0 1.16967,-0.4396 1.16967,-0.97323c0,-1.65659 -3.26107,-1.16967 -3.26107,-3.4066c0,-1.2631 1.01994,-1.85303 2.33455,-1.85303c0.58514,0 1.46014,0.09822 1.89974,0.29466c-0.09822,0.48632 -0.14973,1.11817 -0.14973,1.60508l-0.48212,0.04672l-0.34138,-0.97323c-0.09822,-0.23837 -0.49111,-0.43541 -0.97323,-0.43541c-0.58514,0 -1.16967,0.24316 -1.16967,0.87501c0,1.50686 3.35929,1.16967 3.35929,3.4066c0,1.26789 -1.11817,1.94646 -2.48428,1.94646c-1.01994,0 -2.04468,-0.39289 -2.04468,-0.39289c0.09822,-0.58034 0.05151,-1.2116 0,-1.84824zM245.35276,192.30102c0.14494,-0.53363 0.24316,-1.2116 0.34138,-1.84824l0.53363,-0.04672l0.19644,1.01994c0.04672,0.24316 0.19165,0.4396 0.58034,0.4396c0.63185,0 1.46014,-0.38809 2.24112,-1.75002c-0.34617,-0.82829 -1.36611,-3.50003 -2.29263,-5.54471c-0.24316,-0.53782 -0.28987,-0.58514 -0.62706,-0.68336l-0.24795,-0.09343v-0.49111l1.46434,0.05151l1.79673,-0.09822v0.48691l-0.4396,0.09822c-0.34138,0.04672 -0.48212,0.23837 -0.48212,0.43541c0,0.05151 0,0.09822 0.04672,0.19644c0.09343,0.29466 0.87501,2.48009 1.46014,3.93963c0.48212,-1.01994 1.40864,-3.30778 1.55357,-3.69647c0.05151,-0.19644 0.09822,-0.24316 0.09822,-0.38809c0,-0.24795 -0.14494,-0.39289 -0.48212,-0.48632l-0.34617,-0.09882v-0.48632l1.36611,0.04672l1.2631,-0.04672v0.48632l-0.24316,0.19165c-0.48632,0.19644 -0.53782,0.24316 -0.73007,0.63604l-2.13811,5.00629c-1.26789,2.87297 -2.5825,3.11613 -3.50482,3.11613c-0.58454,0.0006 -1.02414,-0.14913 -1.40804,-0.39229z" fill="#f45800" stroke-width="0.3"/></g></g></svg>