<svg version="1.1" xmlns="http://www.w3.org/2000/svg" xmlns:xlink="http://www.w3.org/1999/xlink" width="23.11978" height="22.09853" viewBox="0,0,23.11978,22.09853"><g transform="translate(-228.44011,-168.95075)"><g stroke-miterlimit="10"><path d="M251.25989,181.03508c0,5.36501 -5.04122,9.7142 -11.25989,9.7142c-6.21866,0 -11.25989,-4.3492 -11.25989,-9.7142c0,-5.365 5.04122,-9.7142 11.25989,-9.7142c6.21866,0 11.25989,4.34921 11.25989,9.7142z" fill="#4d4d4d" stroke="#000000" stroke-width="0.6"/><path d="M239.78768,174.08995c0,-2.67262 2.06889,-4.8392 4.62099,-4.8392c2.55211,0 4.62099,2.16657 4.62099,4.8392c0,2.67262 -2.06889,4.8392 -4.62099,4.8392c-2.55211,0 -4.62099,-2.16657 -4.62099,-4.8392z" fill="#ffffff" stroke="#000000" stroke-width="0.6"/><path d="M240.57347,172.82276c0,-1.25173 0.96498,-2.26647 2.15535,-2.26647c1.19037,0 2.15535,1.01473 2.15535,2.26647c0,1.25173 -0.96498,2.26646 -2.15535,2.26646c-1.19037,0 -2.15535,-1.01472 -2.15535,-2.26646z" fill="#010101" stroke="#000000" stroke-width="0.3"/><path d="M230.97553,174.24602c0,-2.54483 2.06415,-4.60782 4.61039,-4.60782c2.54625,0 4.61039,2.06299 4.61039,4.60782c0,2.54483 -2.06415,4.60782 -4.61039,4.60782c-2.54625,0 -4.61039,-2.06299 -4.61039,-4.60782z" fill="#ffffff" stroke="#000000" stroke-width="0.6"/><path d="M232.20434,172.75005c0,-1.25031 0.98068,-2.26389 2.19043,-2.26389c1.20975,0 2.19043,1.01358 2.19043,2.26389c0,1.25031 -0.98068,2.26388 -2.19043,2.26388c-1.20975,0 -2.19043,-1.01357 -2.19043,-2.26388z" fill="#010101" stroke="#000000" stroke-width="0.3"/><path d="M231.15436,180.88404v3.02878c0,0 1.06723,0 1.63841,-0.04336c0.44918,-0.07865 0.53185,-0.122 0.61452,-0.57118l0.16535,-0.65789h0.4885l-0.08268,1.43776l0.04336,1.47306h-0.49253l-0.122,-0.57521c-0.122,-0.40935 -0.28735,-0.49253 -0.61452,-0.53185c-0.40935,-0.04336 -1.63841,-0.04336 -1.63841,-0.04336v2.54029c0,0.4885 0.24803,0.6972 0.8192,0.6972h1.72109c0.53185,0 1.0632,-0.04336 1.39441,-0.8192l0.44514,-0.98455h0.41338c-0.04336,0.20468 -0.24803,2.00844 -0.28735,2.41426c0,0 -1.55573,-0.03932 -2.20958,-0.03932h-2.95014l-1.7604,0.03932v-0.44514l0.57118,-0.12603c0.41338,-0.08268 0.53538,-0.20468 0.53538,-0.53185c0,0 0.04336,-1.10655 0.04336,-2.95014c0,-1.83905 -0.04336,-2.94611 -0.04336,-2.94611c0,-0.3665 -0.122,-0.44918 -0.53538,-0.53185l-0.57118,-0.121v-0.44918l1.72109,0.03529h3.27682c0.65386,0 1.75637,-0.11797 1.75637,-0.11797c0,0 -0.03932,0.69317 -0.08268,2.33158h-0.44918l-0.16535,-0.57521c-0.16132,-0.73652 -0.40582,-1.10303 -0.85853,-1.10303h-2.57558c-0.20871,0.0005 -0.20871,0.03983 -0.20871,0.16586zM237.78663,181.20718h0.49253v1.72109l1.68176,-0.08268l-0.08268,0.77988l-1.63841,-0.12603v3.03281c0,0.85853 0.28735,1.18923 0.77988,1.18923c0.44514,0 0.77585,-0.24803 0.89785,-0.45271l0.24399,0.28735c-0.24399,0.57118 -0.93716,0.85853 -1.59505,0.85853c-0.81517,0 -1.47709,-0.4885 -1.47709,-1.4297v-3.44268h-0.977v-0.40935c0.81971,-0.08268 1.43021,-0.57521 1.6742,-1.92576zM241.31149,186.4884l0.32667,0.77988c0.122,0.32667 0.40935,0.65789 1.0632,0.65789c0.6972,0 0.98455,-0.37003 0.98455,-0.8192c0,-1.39441 -2.74497,-0.98455 -2.74497,-2.86747c0,-1.0632 0.85853,-1.55976 1.96508,-1.55976c0.49253,0 1.22906,0.08268 1.59909,0.24803c-0.08268,0.40935 -0.12603,0.9412 -0.12603,1.35106l-0.40582,0.03932l-0.28735,-0.8192c-0.08268,-0.20065 -0.41338,-0.3665 -0.8192,-0.3665c-0.49253,0 -0.98455,0.20468 -0.98455,0.73652c0,1.26838 2.82764,0.98455 2.82764,2.86747c0,1.06723 -0.9412,1.63841 -2.09111,1.63841c-0.85853,0 -1.72109,-0.33071 -1.72109,-0.33071c0.08268,-0.4885 0.04336,-1.01985 0,-1.55573zM244.79297,188.86334l0.44918,-0.03932l0.16535,0.85853c0.03932,0.20468 0.16132,0.37003 0.4885,0.37003c0.53185,0 1.22906,-0.32667 1.88643,-1.47306c-0.29138,-0.6972 -1.14991,-2.94611 -1.92979,-4.6672c-0.20468,-0.45271 -0.24399,-0.49253 -0.52782,-0.57521l-0.20871,-0.07865v-0.41338l1.23259,0.04336l1.51237,-0.08268v0.40985l-0.37003,0.08268c-0.28735,0.03932 -0.40582,0.20065 -0.40582,0.3665c0,0.04336 0,0.08268 0.03932,0.16535c0.07865,0.24803 0.73652,2.08758 1.22906,3.31614c0.40582,-0.85853 1.18571,-2.78428 1.3077,-3.11146c0.04336,-0.16535 0.08268,-0.20468 0.08268,-0.32667c0,-0.20871 -0.122,-0.33071 -0.40582,-0.40935l-0.29138,-0.08318v-0.40935l1.14991,0.03932l1.0632,-0.03932v0.40935l-0.20468,0.16132c-0.40935,0.16535 -0.45271,0.20468 -0.61452,0.53538l-1.79973,4.21399c-1.06723,2.41829 -2.17378,2.62297 -2.95014,2.62297c-0.49203,0.0005 -0.86206,-0.12553 -1.1852,-0.3302c0,0 0.20467,-1.01984 0.28734,-1.55573z" fill="#f45800" stroke="#ffffff" stroke-width="0.3"/></g></g></svg>