<svg version="1.1" xmlns="http://www.w3.org/2000/svg" xmlns:xlink="http://www.w3.org/1999/xlink" width="23.11978" height="22.09854" viewBox="0,0,23.11978,22.09854"><g transform="translate(-228.44011,-168.95074)"><g stroke-miterlimit="10"><path d="M251.25989,181.03508c0,5.36501 -5.04122,9.7142 -11.25989,9.7142c-6.21866,0 -11.25989,-4.3492 -11.25989,-9.7142c0,-5.365 5.04122,-9.7142 11.25989,-9.7142c6.21866,0 11.25989,4.34921 11.25989,9.7142z" fill="#4d4d4d" stroke="#000000" stroke-width="0.6"/><path d="M239.78768,174.08995c0,-2.67262 2.06889,-4.8392 4.62099,-4.8392c2.55211,0 4.62099,2.16657 4.62099,4.8392c0,2.67262 -2.06889,4.8392 -4.62099,4.8392c-2.55211,0 -4.62099,-2.16657 -4.62099,-4.8392z" fill="#ffffff" stroke="#000000" stroke-width="0.6"/><path d="M240.57347,172.82276c0,-1.25173 0.96498,-2.26647 2.15535,-2.26647c1.19037,0 2.15535,1.01473 2.15535,2.26647c0,1.25173 -0.96498,2.26646 -2.15535,2.26646c-1.19037,0 -2.15535,-1.01472 -2.15535,-2.26646z" fill="#010101" stroke="#000000" stroke-width="0.3"/><path d="M230.97553,174.24602c0,-2.54483 2.06415,-4.60782 4.61039,-4.60782c2.54625,0 4.61039,2.06299 4.61039,4.60782c0,2.54483 -2.06415,4.60782 -4.61039,4.60782c-2.54625,0 -4.61039,-2.06299 -4.61039,-4.60782z" fill="#ffffff" stroke="#000000" stroke-width="0.6"/><path d="M232.20434,172.75004c0,-1.25031 0.98068,-2.26389 2.19043,-2.26389c1.20975,0 2.19043,1.01358 2.19043,2.26389c0,1.25031 -0.98068,2.26388 -2.19043,2.26388c-1.20975,0 -2.19043,-1.01357 -2.19043,-2.26388z" fill="#010101" stroke="#000000" stroke-width="0.3"/><g stroke="none" stroke-width="1"><path d="M240.07515,179.60036v0c1.51395,0 1.70384,0.00642 2.29833,0.03366c0.59336,0.02697 0.99857,0.12119 1.35316,0.25889c0.37199,0.14 0.70896,0.35948 0.98741,0.64311c0.28358,0.27844 0.503,0.61539 0.64297,0.98734c0.13781,0.35457 0.23203,0.75978 0.25912,1.35314c0.02713,0.59449 0.03354,0.78441 0.03354,2.29833c0,1.51392 -0.00641,1.70375 -0.03354,2.29833c-0.02709,0.59334 -0.1213,0.99854 -0.25912,1.35314c-0.2896,0.74878 -0.88154,1.34072 -1.63031,1.63032c-0.35457,0.13781 -0.75978,0.23203 -1.35314,0.25911c-0.59449,0.02713 -0.78441,0.03355 -2.29834,0.03355c-1.51392,0 -1.70375,-0.00642 -2.29833,-0.03355c-0.59334,-0.02709 -0.99854,-0.1213 -1.35314,-0.25911c-0.37196,-0.13997 -0.7089,-0.3594 -0.98734,-0.64297c-0.28357,-0.27844 -0.503,-0.61539 -0.64297,-0.98734c-0.13781,-0.35457 -0.23203,-0.75978 -0.25912,-1.35314c-0.02724,-0.59449 -0.03365,-0.78439 -0.03365,-2.29833c0,-1.51395 0.00641,-1.70384 0.03365,-2.29833c0.02697,-0.59336 0.12119,-0.99857 0.2589,-1.35316c0.14003,-0.37197 0.35951,-0.70892 0.64315,-0.98734c0.27844,-0.28357 0.61539,-0.503 0.98734,-0.64297c0.35457,-0.13781 0.75978,-0.23203 1.35314,-0.25911c0.59449,-0.02713 0.78439,-0.03355 2.29833,-0.03355z" fill="#000000"/><g fill="#ffffff"><path d="M240.07519,180.60476c-1.4885,0 -1.66479,0.00569 -2.25262,0.03251c-0.5435,0.02478 -0.83867,0.1156 -1.0351,0.19194c-0.24212,0.08936 -0.46114,0.23186 -0.64096,0.417c-0.18516,0.17981 -0.32767,0.39884 -0.41704,0.64098c-0.07634,0.19645 -0.16713,0.49159 -0.19194,1.0351c-0.02682,0.58787 -0.03251,0.76412 -0.03251,2.25262c0,1.4885 0.00569,1.66481 0.03251,2.25262c0.02478,0.5435 0.1156,0.83867 0.19194,1.0351c0.08936,0.24212 0.23186,0.46114 0.417,0.64096c0.17981,0.18514 0.39883,0.32764 0.64096,0.417c0.19645,0.07632 0.49159,0.16713 1.0351,0.19194c0.58778,0.02682 0.76401,0.03251 2.25262,0.03251c1.48861,0 1.6649,-0.00569 2.25262,-0.03251c0.5435,-0.02478 0.83867,-0.1156 1.0351,-0.19194c0.48616,-0.18754 0.87042,-0.5718 1.05796,-1.05796c0.07632,-0.19645 0.16713,-0.49159 0.19194,-1.0351c0.02682,-0.58787 0.03251,-0.76412 0.03251,-2.25262c0,-1.4885 -0.00569,-1.66479 -0.03251,-2.25262c-0.02478,-0.5435 -0.1156,-0.83867 -0.19194,-1.0351c-0.08936,-0.24213 -0.23186,-0.46114 -0.417,-0.64096c-0.17981,-0.18514 -0.39883,-0.32764 -0.64096,-0.417c-0.19645,-0.07634 -0.49159,-0.16713 -1.0351,-0.19194c-0.58787,-0.02682 -0.76416,-0.03251 -2.25262,-0.03251M240.07515,179.60036v0c1.51394,0 1.70385,0.00642 2.29833,0.03366c0.59336,0.02697 0.99856,0.12119 1.35316,0.2589c0.37199,0.14 0.70896,0.35947 0.98741,0.6431c0.28357,0.27844 0.503,0.61539 0.64297,0.98735c0.13781,0.35458 0.23203,0.75978 0.25912,1.35314c0.02713,0.59449 0.03355,0.78441 0.03355,2.29833c0,1.51392 -0.00642,1.70376 -0.03355,2.29833c-0.02708,0.59334 -0.1213,0.99854 -0.25912,1.35314c-0.2896,0.74878 -0.88154,1.34072 -1.63031,1.63031c-0.35458,0.13781 -0.75978,0.23203 -1.35314,0.25912c-0.59449,0.02713 -0.78441,0.03355 -2.29833,0.03355c-1.51392,0 -1.70376,-0.00642 -2.29833,-0.03355c-0.59334,-0.02708 -0.99854,-0.1213 -1.35314,-0.25912c-0.37196,-0.13997 -0.7089,-0.3594 -0.98735,-0.64297c-0.28357,-0.27844 -0.503,-0.61539 -0.64297,-0.98735c-0.13781,-0.35458 -0.23203,-0.75978 -0.25912,-1.35314c-0.02724,-0.59449 -0.03366,-0.78439 -0.03366,-2.29833c0,-1.51394 0.00642,-1.70385 0.03366,-2.29833c0.02697,-0.59336 0.12119,-0.99856 0.2589,-1.35316c0.14002,-0.37197 0.35951,-0.70892 0.64315,-0.98735c0.27844,-0.28357 0.61539,-0.503 0.98735,-0.64297c0.35458,-0.13781 0.75978,-0.23203 1.35314,-0.25912c0.59449,-0.02713 0.78439,-0.03355 2.29833,-0.03355z"/><path d="M242.93772,185.17483c0,1.58095 -1.28162,2.86257 -2.86257,2.86257c-1.58095,0 -2.86257,-1.28162 -2.86257,-2.86257c0,-1.58095 1.28162,-2.86257 2.86257,-2.86257c1.58095,0 2.86257,1.28162 2.86257,2.86257zM241.93331,185.17483c0,-1.02622 -0.83191,-1.85814 -1.85814,-1.85814c-1.02622,0 -1.85814,0.83191 -1.85815,1.85813c-0.00001,1.02622 0.8319,1.85815 1.85812,1.85816c1.02623,0 1.85815,-0.83192 1.85817,-1.85814z"/><path d="M242.38189,182.19916c0,-0.36944 0.29949,-0.66893 0.66893,-0.66893c0.36944,0 0.66893,0.29949 0.66893,0.66893c0,0.36944 -0.29949,0.66893 -0.66893,0.66893c-0.36944,0 -0.66893,-0.29949 -0.66893,-0.66893z"/></g></g></g></g></svg>